<?xml version="1.0" encoding="UTF-8"?>
<svg version="1.1" viewBox="0 0 1000 1000" xml:space="preserve" xmlns="http://www.w3.org/2000/svg"><circle cx="500" cy="500" r="500" fill="#00356b"/><path d="m 501.49622,23.415594 c -263.27148,0 -476.93752,213.666036 -476.93752,476.937536 0,263.26708 213.66604,476.93377 476.93752,476.93377 C 764.7633,977.2869 978.43,763.62021 978.43,500.35313 978.43,237.08163 764.7633,23.415594 501.49622,23.415594 M 453.80155,878.56011 C 265.41062,855.19053 119.94693,694.94178 119.94693,500.35313 c 0,-29.57151 3.81109,-57.71166 10.01368,-85.37241 l 228.45153,228.45292 v 47.6931 c 0,52.46135 42.92481,95.38516 95.38941,95.38516 z m 329.08351,-121.1416 c -12.399,-38.62941 -47.69333,-66.29177 -90.61524,-66.29177 H 644.57673 V 548.04403 c 0,-26.23141 -21.46172,-47.6909 -47.69493,-47.6909 H 310.72103 v -95.38938 h 95.38584 c 26.23074,0 47.69468,-21.46089 47.69468,-47.69473 v -95.38577 h 95.38557 c 52.46258,0 95.38961,-42.92477 95.38961,-95.38759 v -19.55493 c 139.74172,56.75595 238.46763,193.63719 238.46763,353.4124 0,99.19922 -38.15508,189.34158 -100.1593,257.06538" fill="#ffffff" style="mix-blend-mode:normal;stroke-width:47.6949"/></svg>